<svg xmlns="http://www.w3.org/2000/svg" xmlns:se="http://svg-edit.googlecode.com" xmlns:xlink="http://www.w3.org/1999/xlink" xmlns:dc="http://purl.org/dc/elements/1.1/" xmlns:cc="http://creativecommons.org/ns#" xmlns:rdf="http://www.w3.org/1999/02/22-rdf-syntax-ns#" xmlns:inkscape="http://www.inkscape.org/namespaces/inkscape" width="309.30509049904026" height="317.22033936660273" style="">                                    <title>Player</title>                                    <!-- Created with Vector Paint - http://www.vectorpaint.yaks.com/ https://chrome.google.com/webstore/detail/hnbpdiengicdefcjecjbnjnoifekhgdo -->                                    <rect id="backgroundrect" width="100%" height="100%" x="0" y="0" fill="#FFFFFF" stroke="none" class="" style=""/>                                <g class="currentLayer" style=""><title>Layer 1</title><path fill="#989900" fill-opacity="1" stroke="#b8b804" stroke-opacity="1" stroke-width="2" stroke-dasharray="none" stroke-linejoin="round" stroke-linecap="butt" stroke-dashoffset="" fill-rule="nonzero" opacity="1" marker-start="" marker-mid="" marker-end="" d="M21.152557373046875,158.68644773960114 C21.152557373046875,81.06213834733595 81.11940820177614,18.186447739601135 155.15255737304688,18.186447739601135 C229.1857065443176,18.186447739601135 289.1525573730469,81.06213834733595 289.1525573730469,158.68644773960114 C289.1525573730469,236.31075713186635 229.1857065443176,299.18644773960114 155.15255737304688,299.18644773960114 C81.11940820177614,299.18644773960114 21.152557373046875,236.31075713186635 21.152557373046875,158.68644773960114 z" id="svg_3" class=""/><path fill="#ebeb1a" fill-opacity="1" stroke="#b8b804" stroke-opacity="1" stroke-width="2" stroke-dasharray="none" stroke-linejoin="round" stroke-linecap="butt" stroke-dashoffset="" fill-rule="nonzero" opacity="1" marker-start="" marker-mid="" marker-end="" d="M60.677978515625,101.18644773960114 C60.677978515625,86.82180685562324 73.87963597418855,75.18644773960114 90.177978515625,75.18644773960114 C106.47632105706145,75.18644773960114 119.677978515625,86.82180685562324 119.677978515625,101.18644773960114 C119.677978515625,115.55108862357903 106.47632105706145,127.18644773960114 90.177978515625,127.18644773960114 C73.87963597418855,127.18644773960114 60.677978515625,115.55108862357903 60.677978515625,101.18644773960114 z" id="svg_5" class=""/><path fill="#ebeb1a" fill-opacity="1" stroke="#b8b804" stroke-opacity="1" stroke-width="2" stroke-dasharray="none" stroke-linejoin="round" stroke-linecap="butt" stroke-dashoffset="" fill-rule="nonzero" opacity="1" marker-start="" marker-mid="" marker-end="" d="M192.8813600540161,103.72882091999054 C192.8813600540161,89.36418003601264 206.08301751257966,77.72882091999054 222.3813600540161,77.72882091999054 C238.67970259545257,77.72882091999054 251.8813600540161,89.36418003601264 251.8813600540161,103.72882091999054 C251.8813600540161,118.09346180396844 238.67970259545257,129.72882091999054 222.3813600540161,129.72882091999054 C206.08301751257966,129.72882091999054 192.8813600540161,118.09346180396844 192.8813600540161,103.72882091999054 z" class="" id="svg_7"/><path fill="#b8b804" fill-opacity="1" stroke="#b8b804" stroke-opacity="1" stroke-width="2" stroke-dasharray="none" stroke-linejoin="round" stroke-linecap="butt" stroke-dashoffset="" fill-rule="nonzero" opacity="1" marker-start="" marker-mid="" marker-end="" id="svg_16" d="M72.81582474829304,161.95479204726027 L144.91526720079327,242.37288841756725 L215.2542502516407,162.7118714684147 L72.81582474829304,161.95479204726027 z" style="color: rgb(0, 0, 0);" class=""/></g></svg>